<!-- lucide-static v1.23.0 (ISC) — the subset of icons this app uses,
     vendored so no third-party script or CDN runs in the browser. -->
<svg xmlns="http://www.w3.org/2000/svg" style="display:none">
  <symbol id="alert-circle" viewBox="0 0 24 24"><circle cx="12" cy="12" r="10" /> <line x1="12" x2="12" y1="8" y2="12" /> <line x1="12" x2="12.01" y1="16" y2="16" /></symbol>
  <symbol id="alert-octagon" viewBox="0 0 24 24"><path d="M12 16h.01" /> <path d="M12 8v4" /> <path d="M15.312 2a2 2 0 0 1 1.414.586l4.688 4.688A2 2 0 0 1 22 8.688v6.624a2 2 0 0 1-.586 1.414l-4.688 4.688a2 2 0 0 1-1.414.586H8.688a2 2 0 0 1-1.414-.586l-4.688-4.688A2 2 0 0 1 2 15.312V8.688a2 2 0 0 1 .586-1.414l4.688-4.688A2 2 0 0 1 8.688 2z" /></symbol>
  <symbol id="alert-triangle" viewBox="0 0 24 24"><path d="m21.73 18-8-14a2 2 0 0 0-3.48 0l-8 14A2 2 0 0 0 4 21h16a2 2 0 0 0 1.73-3" /> <path d="M12 9v4" /> <path d="M12 17h.01" /></symbol>
  <symbol id="arrow-up-circle" viewBox="0 0 24 24"><circle cx="12" cy="12" r="10" /> <path d="m16 12-4-4-4 4" /> <path d="M12 16V8" /></symbol>
  <symbol id="book-x" viewBox="0 0 24 24"><path d="m14.5 7-5 5" /> <path d="M4 19.5v-15A2.5 2.5 0 0 1 6.5 2H19a1 1 0 0 1 1 1v18a1 1 0 0 1-1 1H6.5a1 1 0 0 1 0-5H20" /> <path d="m9.5 7 5 5" /></symbol>
  <symbol id="bookmark" viewBox="0 0 24 24"><path d="M17 3a2 2 0 0 1 2 2v15a1 1 0 0 1-1.496.868l-4.512-2.578a2 2 0 0 0-1.984 0l-4.512 2.578A1 1 0 0 1 5 20V5a2 2 0 0 1 2-2z" /></symbol>
  <symbol id="check-circle" viewBox="0 0 24 24"><path d="M21.801 10A10 10 0 1 1 17 3.335" /> <path d="m9 11 3 3L22 4" /></symbol>
  <symbol id="check" viewBox="0 0 24 24"><path d="M20 6 9 17l-5-5" /></symbol>
  <symbol id="chevron-down" viewBox="0 0 24 24"><path d="m6 9 6 6 6-6" /></symbol>
  <symbol id="chevron-up" viewBox="0 0 24 24"><path d="m18 15-6-6-6 6" /></symbol>
  <symbol id="circle-dashed" viewBox="0 0 24 24"><path d="M10.1 2.182a10 10 0 0 1 3.8 0" /> <path d="M13.9 21.818a10 10 0 0 1-3.8 0" /> <path d="M17.609 3.721a10 10 0 0 1 2.69 2.7" /> <path d="M2.182 13.9a10 10 0 0 1 0-3.8" /> <path d="M20.279 17.609a10 10 0 0 1-2.7 2.69" /> <path d="M21.818 10.1a10 10 0 0 1 0 3.8" /> <path d="M3.721 6.391a10 10 0 0 1 2.7-2.69" /> <path d="M6.391 20.279a10 10 0 0 1-2.69-2.7" /></symbol>
  <symbol id="download" viewBox="0 0 24 24"><path d="M12 15V3" /> <path d="M21 15v4a2 2 0 0 1-2 2H5a2 2 0 0 1-2-2v-4" /> <path d="m7 10 5 5 5-5" /></symbol>
  <symbol id="external-link" viewBox="0 0 24 24"><path d="M15 3h6v6" /> <path d="M10 14 21 3" /> <path d="M18 13v6a2 2 0 0 1-2 2H5a2 2 0 0 1-2-2V8a2 2 0 0 1 2-2h6" /></symbol>
  <symbol id="eye-off" viewBox="0 0 24 24"><path d="M10.733 5.076a10.744 10.744 0 0 1 11.205 6.575 1 1 0 0 1 0 .696 10.747 10.747 0 0 1-1.444 2.49" /> <path d="M14.084 14.158a3 3 0 0 1-4.242-4.242" /> <path d="M17.479 17.499a10.75 10.75 0 0 1-15.417-5.151 1 1 0 0 1 0-.696 10.75 10.75 0 0 1 4.446-5.143" /> <path d="m2 2 20 20" /></symbol>
  <symbol id="help-circle" viewBox="0 0 24 24"><circle cx="12" cy="12" r="10" /> <path d="M9.09 9a3 3 0 0 1 5.83 1c0 2-3 3-3 3" /> <path d="M12 17h.01" /></symbol>
  <symbol id="history" viewBox="0 0 24 24"><path d="M3 12a9 9 0 1 0 9-9 9.75 9.75 0 0 0-6.74 2.74L3 8" /> <path d="M3 3v5h5" /> <path d="M12 7v5l4 2" /></symbol>
  <symbol id="inbox" viewBox="0 0 24 24"><polyline points="22 12 16 12 14 15 10 15 8 12 2 12" /> <path d="M5.45 5.11 2 12v6a2 2 0 0 0 2 2h16a2 2 0 0 0 2-2v-6l-3.45-6.89A2 2 0 0 0 16.76 4H7.24a2 2 0 0 0-1.79 1.11z" /></symbol>
  <symbol id="info" viewBox="0 0 24 24"><circle cx="12" cy="12" r="10" /> <path d="M12 16v-4" /> <path d="M12 8h.01" /></symbol>
  <symbol id="layers" viewBox="0 0 24 24"><path d="M12.83 2.18a2 2 0 0 0-1.66 0L2.6 6.08a1 1 0 0 0 0 1.83l8.58 3.91a2 2 0 0 0 1.66 0l8.58-3.9a1 1 0 0 0 0-1.83z" /> <path d="M2 12a1 1 0 0 0 .58.91l8.6 3.91a2 2 0 0 0 1.65 0l8.58-3.9A1 1 0 0 0 22 12" /> <path d="M2 17a1 1 0 0 0 .58.91l8.6 3.91a2 2 0 0 0 1.65 0l8.58-3.9A1 1 0 0 0 22 17" /></symbol>
  <symbol id="library-big" viewBox="0 0 24 24"><rect width="8" height="18" x="3" y="3" rx="1" /> <path d="M7 3v18" /> <path d="M20.4 18.9c.2.5-.1 1.1-.6 1.3l-1.9.7c-.5.2-1.1-.1-1.3-.6L11.1 5.1c-.2-.5.1-1.1.6-1.3l1.9-.7c.5-.2 1.1.1 1.3.6Z" /></symbol>
  <symbol id="library" viewBox="0 0 24 24"><path d="m16 6 4 14" /> <path d="M12 6v14" /> <path d="M8 8v12" /> <path d="M4 4v16" /></symbol>
  <symbol id="log-in" viewBox="0 0 24 24"><path d="m10 17 5-5-5-5" /> <path d="M15 12H3" /> <path d="M15 3h4a2 2 0 0 1 2 2v14a2 2 0 0 1-2 2h-4" /></symbol>
  <symbol id="log-out" viewBox="0 0 24 24"><path d="m16 17 5-5-5-5" /> <path d="M21 12H9" /> <path d="M9 21H5a2 2 0 0 1-2-2V5a2 2 0 0 1 2-2h4" /></symbol>
  <symbol id="package" viewBox="0 0 24 24"><path d="M11 21.73a2 2 0 0 0 2 0l7-4A2 2 0 0 0 21 16V8a2 2 0 0 0-1-1.73l-7-4a2 2 0 0 0-2 0l-7 4A2 2 0 0 0 3 8v8a2 2 0 0 0 1 1.73z" /> <path d="M12 22V12" /> <polyline points="3.29 7 12 12 20.71 7" /> <path d="m7.5 4.27 9 5.15" /></symbol>
  <symbol id="plug-zap" viewBox="0 0 24 24"><path d="M6.3 20.3a2.4 2.4 0 0 0 3.4 0L12 18l-6-6-2.3 2.3a2.4 2.4 0 0 0 0 3.4Z" /> <path d="m2 22 3-3" /> <path d="M7.5 13.5 10 11" /> <path d="M10.5 16.5 13 14" /> <path d="m18 3-4 4h6l-4 4" /></symbol>
  <symbol id="refresh-cw" viewBox="0 0 24 24"><path d="M3 12a9 9 0 0 1 9-9 9.75 9.75 0 0 1 6.74 2.74L21 8" /> <path d="M21 3v5h-5" /> <path d="M21 12a9 9 0 0 1-9 9 9.75 9.75 0 0 1-6.74-2.74L3 16" /> <path d="M8 16H3v5" /></symbol>
  <symbol id="rotate-cw" viewBox="0 0 24 24"><path d="M21 12a9 9 0 1 1-9-9c2.52 0 4.93 1 6.74 2.74L21 8" /> <path d="M21 3v5h-5" /></symbol>
  <symbol id="search" viewBox="0 0 24 24"><path d="m21 21-4.34-4.34" /> <circle cx="11" cy="11" r="8" /></symbol>
  <symbol id="shield" viewBox="0 0 24 24"><path d="M20 13c0 5-3.5 7.5-7.66 8.95a1 1 0 0 1-.67-.01C7.5 20.5 4 18 4 13V6a1 1 0 0 1 1-1c2 0 4.5-1.2 6.24-2.72a1.17 1.17 0 0 1 1.52 0C14.51 3.81 17 5 19 5a1 1 0 0 1 1 1z" /></symbol>
  <symbol id="sparkles" viewBox="0 0 24 24"><path d="M11.017 2.814a1 1 0 0 1 1.966 0l1.051 5.558a2 2 0 0 0 1.594 1.594l5.558 1.051a1 1 0 0 1 0 1.966l-5.558 1.051a2 2 0 0 0-1.594 1.594l-1.051 5.558a1 1 0 0 1-1.966 0l-1.051-5.558a2 2 0 0 0-1.594-1.594l-5.558-1.051a1 1 0 0 1 0-1.966l5.558-1.051a2 2 0 0 0 1.594-1.594z" /> <path d="M20 2v4" /> <path d="M22 4h-4" /> <circle cx="4" cy="20" r="2" /></symbol>
  <symbol id="star" viewBox="0 0 24 24"><path d="M11.525 2.295a.53.53 0 0 1 .95 0l2.31 4.679a2.123 2.123 0 0 0 1.595 1.16l5.166.756a.53.53 0 0 1 .294.904l-3.736 3.638a2.123 2.123 0 0 0-.611 1.878l.882 5.14a.53.53 0 0 1-.771.56l-4.618-2.428a2.122 2.122 0 0 0-1.973 0L6.396 21.01a.53.53 0 0 1-.77-.56l.881-5.139a2.122 2.122 0 0 0-.611-1.879L2.16 9.795a.53.53 0 0 1 .294-.906l5.165-.755a2.122 2.122 0 0 0 1.597-1.16z" /></symbol>
  <symbol id="wifi-off" viewBox="0 0 24 24"><path d="M12 20h.01" /> <path d="M8.5 16.429a5 5 0 0 1 7 0" /> <path d="M5 12.859a10 10 0 0 1 5.17-2.69" /> <path d="M19 12.859a10 10 0 0 0-2.007-1.523" /> <path d="M2 8.82a15 15 0 0 1 4.177-2.643" /> <path d="M22 8.82a15 15 0 0 0-11.288-3.764" /> <path d="m2 2 20 20" /></symbol>
  <symbol id="x" viewBox="0 0 24 24"><path d="M18 6 6 18" /> <path d="m6 6 12 12" /></symbol>
  <symbol id="zap" viewBox="0 0 24 24"><path d="M4 14a1 1 0 0 1-.78-1.63l9.9-10.2a.5.5 0 0 1 .86.46l-1.92 6.02A1 1 0 0 0 13 10h7a1 1 0 0 1 .78 1.63l-9.9 10.2a.5.5 0 0 1-.86-.46l1.92-6.02A1 1 0 0 0 11 14z" /></symbol>
  <symbol id="settings" viewBox="0 0 24 24"><path d="M9.671 4.136a2.34 2.34 0 0 1 4.659 0 2.34 2.34 0 0 0 3.319 1.915 2.34 2.34 0 0 1 2.33 4.033 2.34 2.34 0 0 0 0 3.831 2.34 2.34 0 0 1-2.33 4.033 2.34 2.34 0 0 0-3.319 1.915 2.34 2.34 0 0 1-4.659 0 2.34 2.34 0 0 0-3.32-1.915 2.34 2.34 0 0 1-2.33-4.033 2.34 2.34 0 0 0 0-3.831A2.34 2.34 0 0 1 6.35 6.051a2.34 2.34 0 0 0 3.319-1.915" /> <circle cx="12" cy="12" r="3" /></symbol>
  <symbol id="plus" viewBox="0 0 24 24"><path d="M5 12h14" /> <path d="M12 5v14" /></symbol>
  <symbol id="trash-2" viewBox="0 0 24 24"><path d="M10 11v6" /> <path d="M14 11v6" /> <path d="M19 6v14a2 2 0 0 1-2 2H7a2 2 0 0 1-2-2V6" /> <path d="M3 6h18" /> <path d="M8 6V4a2 2 0 0 1 2-2h4a2 2 0 0 1 2 2v2" /></symbol>
</svg>
